<svg xmlns="http://www.w3.org/2000/svg" viewBox="0 0 24 24" height="24" width="24" id="Money-Bag-Dollar--Streamline-Ultimate.svg"><desc>Money Bag Dollar Streamline Icon: https://streamlinehq.com</desc><g id="Money-Bag-Dollar--Streamline-Ultimate.svg"><g><path d="m12 12.33 0 -1.5" fill="none" stroke="#000000" stroke-linecap="round" stroke-linejoin="round" stroke-width="1"></path><g><path d="M14.5 12.33h-3.66a1.34 1.34 0 0 0 -1.34 1.34 1.32 1.32 0 0 0 0.84 1.24l3.32 0.83a1.34 1.34 0 0 1 -0.5 2.59H9.5" fill="none" stroke="#000000" stroke-linecap="round" stroke-linejoin="round" stroke-width="1"></path><path d="m12 19.83 0 -1.5" fill="none" stroke="#000000" stroke-linecap="round" stroke-linejoin="round" stroke-width="1"></path></g></g><path d="m8.5 6.33 7 0" fill="none" stroke="#000000" stroke-linecap="round" stroke-linejoin="round" stroke-width="1"></path><path d="M14 6.33a0.5 0.5 0 0 0 0.49 -0.44 13.52 13.52 0 0 1 1.21 -3.77 0.5 0.5 0 0 0 -0.07 -0.57 0.49 0.49 0 0 0 -0.57 -0.12l-2.1 0.9L12.47 1a0.5 0.5 0 0 0 -0.93 0L11 2.33l-2.09 -0.9a0.49 0.49 0 0 0 -0.57 0.12 0.5 0.5 0 0 0 -0.07 0.57 13.52 13.52 0 0 1 1.21 3.77 0.5 0.5 0 0 0 0.49 0.44" fill="none" stroke="#000000" stroke-linecap="round" stroke-linejoin="round" stroke-width="1"></path><path d="M14 6.33s7 5.5 7 10.31c0 5 -4 6.69 -9 6.69s-9 -1.72 -9 -6.69c0 -4.81 7 -10.31 7 -10.31" fill="none" stroke="#000000" stroke-linecap="round" stroke-linejoin="round" stroke-width="1"></path></g></svg>