<svg xmlns="http://www.w3.org/2000/svg" fill="none" viewBox="0 0 24 24" height="24" width="24" id="Self-Playing-Area--Streamline-Ultimate.svg"><desc>Self Playing Area Streamline Icon: https://streamlinehq.com</desc><path stroke="#000000" stroke-linecap="round" d="M3.99237 6.58406C2.18717 6.0379 1.08362 5.30674 1.08362 4.5033c0 -1.69084 4.88743 -3.06153 10.91638 -3.06153 6.029 0 10.9164 1.37069 10.9164 3.06153 0 0.80344 -1.1036 1.5346 -2.9088 2.08076" stroke-width="1"></path><path stroke="#000000" stroke-linecap="round" d="m1.08362 4.53381 0 14.96299c0 1.2525 2.68209 2.3294 6.52347 2.8035M22.9164 4.55005V19.4968c0 1.2525 -2.6821 2.3294 -6.5235 2.8035" stroke-width="1"></path><path stroke="#000000" stroke-linecap="round" d="M22.9164 4.49925c0 0.91846 -1.4421 1.74245 -3.726 2.30361M1.08362 4.49925c0 0.91846 1.44211 1.74245 3.72594 2.30361" stroke-width="1"></path><path stroke="#000000" stroke-linecap="round" d="M22.9164 11.0958c0 0.9185 -1.4421 1.7425 -3.726 2.3036M1.08362 11.0958c0 0.9185 1.44211 1.7425 3.72594 2.3036" stroke-width="1"></path><path stroke="#000000" stroke-linecap="round" d="M7.72931 1.79248v2.74131" stroke-width="1"></path><path stroke="#000000" stroke-linecap="round" d="M16.2707 1.79248v2.74131" stroke-width="1"></path><path stroke="#000000" stroke-linecap="round" d="M4.79199 6.80286V21.575" stroke-width="1"></path><path stroke="#000000" stroke-linecap="round" d="M19.208 6.80286V21.575" stroke-width="1"></path><path stroke="#000000" stroke-linecap="round" stroke-linejoin="round" d="M12 11.2432c1.2865 0 2.3295 -1.043 2.3295 -2.32953 0 -1.28658 -1.043 -2.32956 -2.3295 -2.32956 -1.2866 0 -2.32959 1.04298 -2.32959 2.32956 0 1.28653 1.04299 2.32953 2.32959 2.32953Z" stroke-width="1"></path><path stroke="#000000" stroke-linecap="round" stroke-linejoin="round" d="M15.3279 17.2335v-1.9967c0 -0.8827 -0.3506 -1.7291 -0.9747 -2.3533 -0.6241 -0.6241 -1.4706 -0.9747 -2.3532 -0.9747 -0.8826 0 -1.7291 0.3506 -2.35321 0.9747 -0.62411 0.6242 -0.97473 1.4706 -0.97473 2.3533v1.9967h1.33114l0.6656 5.3247h2.6624l0.6656 -5.3247h1.3311Z" stroke-width="1"></path></svg>