<svg viewBox="0 0 24 24" xmlns="http://www.w3.org/2000/svg" height="24" width="24" id="Toilet-Seat-1--Streamline-Ultimate.svg"><desc>Toilet Seat 1 Streamline Icon: https://streamlinehq.com</desc><path d="M20.5 3a0.5 0.5 0 0 1 -0.5 0.5H4a0.5 0.5 0 0 1 -0.5 -0.5v-0.5a2 2 0 0 1 2 -2h13a2 2 0 0 1 2 2Z" fill="none" stroke="#000000" stroke-linecap="round" stroke-linejoin="round" stroke-width="1"></path><path d="M19.5 13.5h-15v-1a2 2 0 0 1 2 -2h11a2 2 0 0 1 2 2Z" fill="none" stroke="#000000" stroke-linecap="round" stroke-linejoin="round" stroke-width="1"></path><path d="m5 3.5 0.518 7.257" fill="none" stroke="#000000" stroke-linecap="round" stroke-linejoin="round" stroke-width="1"></path><path d="m19 3.5 -0.518 7.257" fill="none" stroke="#000000" stroke-linecap="round" stroke-linejoin="round" stroke-width="1"></path><path d="M19 13.5H5a4.989 4.989 0 0 0 2.62 4.392 2 2 0 0 1 1.015 2.116l-0.528 2.9a0.5 0.5 0 0 0 0.492 0.59h6.8a0.5 0.5 0 0 0 0.492 -0.59l-0.528 -2.9a2 2 0 0 1 1.015 -2.116A4.989 4.989 0 0 0 19 13.5Z" fill="none" stroke="#000000" stroke-linecap="round" stroke-linejoin="round" stroke-width="1"></path></svg>